<!DOCTYPE svg PUBLIC "-//W3C//DTD SVG 1.1//EN" "http://www.w3.org/Graphics/SVG/1.1/DTD/svg11.dtd">
<!-- Uploaded to: SVG Repo, www.svgrepo.com, Transformed by: SVG Repo Mixer Tools -->
<svg width="800px" height="800px" viewBox="-4.8 -4.8 57.60 57.60" id="Layer_2" data-name="Layer 2" xmlns="http://www.w3.org/2000/svg" fill="#3bde77" stroke="#3bde77" stroke-width="0.00048000000000000007" transform="rotate(0)">
<g id="SVGRepo_bgCarrier" stroke-width="0">
<path transform="translate(-4.8, -4.8), scale(3.5999999999999996)" fill="#134e4a" d="M9.166.33a2.25 2.25 0 00-2.332 0l-5.25 3.182A2.25 2.25 0 00.5 5.436v5.128a2.25 2.25 0 001.084 1.924l5.25 3.182a2.25 2.25 0 002.332 0l5.25-3.182a2.25 2.25 0 001.084-1.924V5.436a2.25 2.25 0 00-1.084-1.924L9.166.33z" strokewidth="0"/>
</g>
<g id="SVGRepo_tracerCarrier" stroke-linecap="round" stroke-linejoin="round" stroke="#3bde77" stroke-width="1.152">
<defs>
<style>.cls-1{fill:none;stroke:#f1f5f9;stroke-linecap:round;stroke-linejoin:round;}</style>
</defs>
<path class="cls-1" d="M40.5,5.5H7.5a2,2,0,0,0-2,2v33a2,2,0,0,0,2,2h33a2,2,0,0,0,2-2V7.5A2,2,0,0,0,40.5,5.5Z"/>
<path class="cls-1" d="M21.71,10.5A6.74,6.74,0,0,0,15,17.25h0A6.74,6.74,0,0,0,21.71,24H24"/>
<path class="cls-1" d="M24,24h2.29A6.74,6.74,0,0,1,33,30.75h0a6.74,6.74,0,0,1-6.73,6.75"/>
<path class="cls-1" d="M32.38,12.78C30.52,11.22,28.51,10.5,24,10.5H21.71"/>
<path class="cls-1" d="M15.62,35.22c1.86,1.56,3.87,2.28,8.38,2.28h2.29"/>
</g>
<g id="SVGRepo_iconCarrier">
<defs>
<style>.cls-1{fill:none;stroke:#f1f5f9;stroke-linecap:round;stroke-linejoin:round;}</style>
</defs>
<path class="cls-1" d="M40.5,5.5H7.5a2,2,0,0,0-2,2v33a2,2,0,0,0,2,2h33a2,2,0,0,0,2-2V7.5A2,2,0,0,0,40.5,5.5Z"/>
<path class="cls-1" d="M21.71,10.5A6.74,6.74,0,0,0,15,17.25h0A6.74,6.74,0,0,0,21.71,24H24"/>
<path class="cls-1" d="M24,24h2.29A6.74,6.74,0,0,1,33,30.75h0a6.74,6.74,0,0,1-6.73,6.75"/>
<path class="cls-1" d="M32.38,12.78C30.52,11.22,28.51,10.5,24,10.5H21.71"/>
<path class="cls-1" d="M15.62,35.22c1.86,1.56,3.87,2.28,8.38,2.28h2.29"/>
</g>
</svg>